<svg id="Capa_2" data-name="Capa 2" xmlns="http://www.w3.org/2000/svg" width="623.395" height="205.44" viewBox="0 0 623.395 205.44">
  <g id="Capa_1" data-name="Capa 1" transform="translate(0)">
    <path id="Path_65" data-name="Path 65" d="M139.464,139.193l36.08,35.76a3.421,3.421,0,0,1-1.28,1.6c-15.049,14.287-32.723,23.606-53.163,27.279A102.7,102.7,0,0,1,3.5,129.3,101.5,101.5,0,0,1,.384,94.058,103.078,103.078,0,0,1,173.843,28.209c.148.137.293.279.437.421,1.066,1.048,1.086,1.067,0,2.175q-7.8,7.927-15.627,15.834-9.031,9.131-18.076,18.249c-1.072,1.081-1.094,1.092-2.2.086a51.2,51.2,0,0,0-28.043-13.32C93.847,49.407,79.342,53.982,67.19,65.372A49.514,49.514,0,0,0,51.424,97.082,51.425,51.425,0,0,0,90.6,152.943c17.752,4.183,33.462-.3,47.142-12.205C138.293,140.262,138.825,139.768,139.464,139.193Z" transform="translate(-0.001 -0.062)" fill="#DE0032"/>
    <path id="Path_66" data-name="Path 66" d="M91.816,134.443c.6-3.151,1.155-6.186,1.766-9.211,1.388-6.873,3.057-13.668,6.092-20.039,3.247-6.817,7.8-12.421,14.849-15.642a32.788,32.788,0,0,1,12.128-2.778A36.053,36.053,0,0,1,147.9,91.992c2.243,1.377,4.39,2.889,6.512,4.441a108.28,108.28,0,0,0,9.7,6.58,38.14,38.14,0,0,0,16.731,4.844,16.9,16.9,0,0,0,10.37-2.719,96.973,96.973,0,0,0,8.25-6.177,26.4,26.4,0,0,1,4.265-3.016,7.266,7.266,0,0,1-.113,3.046c-1.408,9.646-3.824,19-8.38,27.694a36.763,36.763,0,0,1-10.509,12.9,23.926,23.926,0,0,1-14.3,4.824c-10.338.132-19.569-3.175-28.166-8.655-4.432-2.825-8.706-5.895-13.3-8.463a36.024,36.024,0,0,0-19.939-4.871,14.787,14.787,0,0,0-11.508,5.806c-1.441,1.866-2.93,3.695-4.418,5.524a1.423,1.423,0,0,1-1.278.693Z" transform="translate(-14.344 -13.595)" fill="#fdc32f"/>
    <path id="Path_67" data-name="Path 67" d="M362.374,182.435v2.21c0,4.783.008,9.565-.005,14.347,0,1.477-.031,1.506-1.4,1.522q-3.134.037-6.27,0c-1.383-.017-1.383-.047-1.422-1.517-.007-.269,0-.539,0-.808q0-22.531,0-45.062c0-2.46-.263-2.175,2.113-2.192,1.82-.013,3.642.037,5.461-.018.908-.027,1.161.346,1.123,1.182-.049,1.075-.012,2.154-.012,3.209.34.218.517.019.676-.2,3.3-4.523,7.948-5.51,13.117-4.774a12.411,12.411,0,0,1,10.4,8.506,26.961,26.961,0,0,1,.025,19.171c-3.3,8.958-12.079,10.084-18.046,8.266a10.7,10.7,0,0,1-4.1-2.515A4.956,4.956,0,0,0,362.374,182.435Zm15.778-13.921a15.22,15.22,0,0,0-1.662-7.592,6.4,6.4,0,0,0-7.262-3.473,6.81,6.81,0,0,0-4.929,3.811,15.589,15.589,0,0,0-.022,14.709,6.556,6.556,0,0,0,6.577,3.8c2.9-.117,4.718-1.73,5.894-4.2a15.827,15.827,0,0,0,1.4-7.052Z" transform="translate(-55.188 -23.502)" fill="#303030"/>
    <path id="Path_68" data-name="Path 68" d="M429.606,67.353a28.926,28.926,0,0,1,4.166-3.457,14.088,14.088,0,0,1,19.708,6.2c2.029,4.5,2.259,9.243,1.784,14.059a22.416,22.416,0,0,1-1,4.732c-2.29,7.055-7.73,10.652-15.115,10.1a12.16,12.16,0,0,1-8.7-4.455c-.731.306-.42.855-.423,1.249-.025,4.918-.009,9.837-.019,14.755-.005,2.278.227,1.982-2.09,2-1.955.014-3.912-.032-5.867.018-.883.022-1.226-.3-1.139-1.163.033-.333,0-.673,0-1.01q0-22.637,0-45.275c0-2.409-.113-2.19,2.173-2.194,1.821,0,3.642.025,5.462-.009.8-.015,1.083.312,1.061,1.076C429.583,65.1,429.606,66.229,429.606,67.353Zm16.179,13.29a15.952,15.952,0,0,0-1.308-7.013,6.751,6.751,0,0,0-4.264-4.007,6.834,6.834,0,0,0-8.192,3.531,15.456,15.456,0,0,0-.188,14.716,6.628,6.628,0,0,0,6.5,3.982c3.019-.081,4.972-1.8,6.159-4.467a15.928,15.928,0,0,0,1.3-6.741Z" transform="translate(-65.752 -9.745)" fill="#303030"/>
    <path id="Path_69" data-name="Path 69" d="M273.047,160.037q0-11.014,0-22.028c0-1.732.018-1.745,1.762-1.747q12.44-.008,24.881,0c1.693,0,1.629-.108,1.626,1.668,0,1.482.018,2.964-.006,4.446-.024,1.416-.044,1.447-1.486,1.453-4.585.016-9.17-.01-13.755.018-1.064.006-2.381-.454-3.129.241-.768.713-.256,2.045-.28,3.1-.051,2.222-.029,4.446-.011,6.669.012,1.555.031,1.588,1.554,1.594,4.383.018,8.766.006,13.148.007.472,0,.944.016,1.416,0,.7-.019.937.348.931,1-.015,1.818-.023,3.638,0,5.456.011.742-.2,1.107-1.03,1.078-1.414-.051-2.831-.012-4.247-.012-3.439,0-6.877-.011-10.316.006-1.424.007-1.453.034-1.46,1.447q-.026,5.254,0,10.508c.007,1.422.034,1.456,1.463,1.461,4.99.016,9.979.006,14.969.007.472,0,.944.015,1.416,0,.668-.017.989.278.984.962-.011,1.886-.017,3.772.007,5.658.008.691-.279.982-.958.947-.4-.02-.809,0-1.214,0q-12.036,0-24.071,0c-2.352,0-2.2.356-2.2-2.116Q273.041,170.95,273.047,160.037Z" transform="translate(-42.654 -21.338)" fill="#303030"/>
    <path id="Path_70" data-name="Path 70" d="M306.739,57.117c-.84.125-1.359-.394-1.962-.637a20.483,20.483,0,0,0-12.483-1.11c-6.352,1.455-11,6.987-11.751,13.87a22.164,22.164,0,0,0,.256,7.231c1.729,7.872,7.443,12.582,15.51,12.674a28.877,28.877,0,0,0,9.154-1.366,2.736,2.736,0,0,1,1.62-.336c.117,2.332.218,4.676.362,7.017.057.936-.673.9-1.207,1.02a42.394,42.394,0,0,1-11.421,1.2,36.4,36.4,0,0,1-8.955-1.426c-8.958-2.71-14.631-9.627-15.4-18.963a33.205,33.205,0,0,1,1.117-12.8,21.052,21.052,0,0,1,13.859-14.4,33.009,33.009,0,0,1,20.466-.332c1.049.307,1.568.733,1.4,1.965C307.012,52.845,306.915,54.989,306.739,57.117Z" transform="translate(-42.22 -7.441)" fill="#303030"/>
    <path id="Path_71" data-name="Path 71" d="M318.858,80.744a17.526,17.526,0,0,1,1.173-7.323c2.459-6.369,7.224-9.888,13.849-10.981a20.617,20.617,0,0,1,9.408.6,17.261,17.261,0,0,1,12.391,16.016,20.9,20.9,0,0,1-1.074,8.557c-2.4,6.5-7.179,10.074-13.9,11.161a22.141,22.141,0,0,1-8.837-.363,16.911,16.911,0,0,1-13-15.445C318.816,82.228,318.858,81.485,318.858,80.744Zm27.175-.392a12.221,12.221,0,0,0-1.3-6.444,7.917,7.917,0,0,0-5.128-4.23,8.308,8.308,0,0,0-10.482,5.775A16.4,16.4,0,0,0,329.7,86.9a7.571,7.571,0,0,0,7.568,4.99,7.753,7.753,0,0,0,7.559-5.04A16.073,16.073,0,0,0,346.033,80.352Z" transform="translate(-49.807 -9.761)" fill="#303030"/>
    <path id="Path_72" data-name="Path 72" d="M494.93,168.8a17.514,17.514,0,0,1,.97-6.956,17.3,17.3,0,0,1,15.74-11.671,22.106,22.106,0,0,1,8.184.959A17.285,17.285,0,0,1,531.734,166.9a21.929,21.929,0,0,1-.886,8.187,17.133,17.133,0,0,1-15.788,11.848,23.15,23.15,0,0,1-8.4-.913,16.96,16.96,0,0,1-11.726-15C494.883,170.284,494.93,169.539,494.93,168.8Zm27.208-.675c-.035-.738-.009-1.486-.114-2.214-.465-3.19-1.652-5.985-4.646-7.609-4.86-2.638-10.584-.218-12.252,5.264a16.521,16.521,0,0,0,.616,11.255,7.5,7.5,0,0,0,7.564,4.968,7.645,7.645,0,0,0,7.579-4.971A17.052,17.052,0,0,0,522.138,168.124Z" transform="translate(-77.31 -23.502)" fill="#303030"/>
    <path id="Path_73" data-name="Path 73" d="M667.1,99.03a21.34,21.34,0,0,1-7.86-1.21c-6.788-2.635-10.324-7.79-11.063-14.863-.853-8.154,2.587-16.385,11.3-19.59a20.283,20.283,0,0,1,10.364-.931c6.625,1.069,11.471,4.546,13.884,10.928a20.109,20.109,0,0,1,.035,14.624c-2.4,6.306-7.194,9.714-13.75,10.788C668.883,98.962,667.729,98.979,667.1,99.03Zm-9.394-18.955a16.869,16.869,0,0,0,1.751,7.795c2.968,5.231,10.954,5.52,13.934.319a14.982,14.982,0,0,0,.693-14.15,7.749,7.749,0,0,0-7.419-4.7,7.948,7.948,0,0,0-7.549,4.506A12.637,12.637,0,0,0,657.707,80.075Z" transform="translate(-101.236 -9.76)" fill="#303030"/>
    <path id="Path_74" data-name="Path 74" d="M405.385,80.851c-.074,6.626-2.487,12.615-9.175,16a20.022,20.022,0,0,1-18.689.013c-5.68-2.825-8.417-7.8-9.03-13.946-.814-8.151,2.586-16.411,11.345-19.552a20.338,20.338,0,0,1,14.446.157,16.368,16.368,0,0,1,9.8,9.859A23,23,0,0,1,405.385,80.851Zm-27.365-.814a16.567,16.567,0,0,0,1.749,7.793c2.927,5.255,10.938,5.576,13.923.384a14.91,14.91,0,0,0,.633-14.324,7.713,7.713,0,0,0-7.3-4.55,7.919,7.919,0,0,0-7.467,4.3A12.7,12.7,0,0,0,378.02,80.037Z" transform="translate(-57.546 -9.756)" fill="#303030"/>
    <path id="Path_75" data-name="Path 75" d="M709.253,67.7c.545-.573.775-.8.992-1.043,3.957-4.392,8.951-5.168,14.411-3.969a9.588,9.588,0,0,1,6.8,5.823,16.472,16.472,0,0,1,1.371,6.877q.014,10.606,0,21.213c0,1.585-.026,1.6-1.5,1.618-2.089.019-4.181-.047-6.267.025-1.1.038-1.366-.376-1.358-1.413.046-5.32.016-10.64.024-15.96a40.182,40.182,0,0,0-.334-6.044c-.345-2.3-1.132-4.357-3.6-5.136a6.566,6.566,0,0,0-7.049,1.759,10.6,10.6,0,0,0-2.673,5.989,28.878,28.878,0,0,0-.379,4.827q.029,7.172,0,14.344c0,1.573-.025,1.594-1.514,1.609q-3.033.03-6.067,0c-1.495-.014-1.515-.033-1.522-1.6-.013-3.5,0-7,0-10.505V65.3c0-.471.016-.943,0-1.414-.02-.671.274-.967.963-.961,2.224.019,4.448.028,6.673,0,.807-.011,1.062.349,1.042,1.1C709.23,65.093,709.253,66.165,709.253,67.7Z" transform="translate(-109.441 -9.765)" fill="#303030"/>
    <path id="Path_76" data-name="Path 76" d="M476.571,83.444c.505,5.507,4.094,8.734,9.677,8.843a21.2,21.2,0,0,0,9.542-2.28,5.724,5.724,0,0,1,2.543-.991c0,2.193-.023,4.331.011,6.468.014.9-.642,1.068-1.24,1.361a23.581,23.581,0,0,1-9.787,2.174,24.855,24.855,0,0,1-8-.9,15.1,15.1,0,0,1-10.969-11.557,24.4,24.4,0,0,1,.222-12.584c2.24-8.034,8.571-12.382,17.039-11.744a23.813,23.813,0,0,1,3.4.443,13.384,13.384,0,0,1,10.219,9.1,29.56,29.56,0,0,1,1.629,10.116c0,1.526-.009,1.548-1.526,1.55q-10.218.013-20.435,0Zm15.311-6.473c.128-4.687-2.667-7.883-6.948-8.048-4.7-.181-8.037,3.007-8.3,8.048Z" transform="translate(-73.052 -9.765)" fill="#303030"/>
    <path id="Path_77" data-name="Path 77" d="M423.049,164.306c-.038-.826-.018-1.368-.093-1.9-.461-3.235-2.317-5.013-5.605-5.375a18.16,18.16,0,0,0-11.27,2.377,3.365,3.365,0,0,1-1.988.852c-.053-2.285-.082-4.543-.169-6.8-.033-.852.616-.979,1.141-1.182a31.188,31.188,0,0,1,9.426-2.1,28.837,28.837,0,0,1,7.051.381c5.227.977,8.414,4.012,9.465,9.2a22.561,22.561,0,0,1,.451,4.21c.075,6.869-.052,13.741.45,20.6.112,1.534.053,1.552-1.457,1.564-1.821.015-3.643-.031-5.462.018-.861.023-1.179-.3-1.22-1.143-.058-1.174-.23-2.342-.375-3.724-.79.867-1.365,1.595-2.036,2.221a14.039,14.039,0,0,1-17.689.6c-5.523-4.379-4.361-13.508.757-16.849a17.993,17.993,0,0,1,7.165-2.561,37.182,37.182,0,0,1,6.45-.407C419.649,164.326,421.259,164.306,423.049,164.306Zm-3.942,5.479c-1.176.069-2.257.078-3.324.207a9.314,9.314,0,0,0-5.2,1.963,4.888,4.888,0,0,0-1.613,4.927,3.863,3.863,0,0,0,3.2,3.012c5.538,1.3,9.039-1.6,10.279-5.432a14.034,14.034,0,0,0,.492-2.16c.375-2.426.292-2.512-2.111-2.517C420.218,169.785,419.613,169.785,419.107,169.785Z" transform="translate(-62.491 -23.503)" fill="#303030"/>
    <path id="Path_78" data-name="Path 78" d="M590.358,181.277c-.812.891-1.389,1.618-2.059,2.245a14.039,14.039,0,0,1-17.689.594c-5.52-4.381-4.356-13.51.765-16.849a18.007,18.007,0,0,1,7.166-2.558,37.166,37.166,0,0,1,6.451-.407c1.608.025,3.216,0,4.8,0,.457-4.383-1.685-6.934-5.907-7.311a18.429,18.429,0,0,0-11.044,2.513c-.5.287-.912.8-1.807.724-.052-2.257-.082-4.516-.168-6.774-.032-.853.622-.975,1.146-1.178a31.15,31.15,0,0,1,9.426-2.095,28.84,28.84,0,0,1,7.051.382c5.225.977,8.413,4.017,9.46,9.207a22.5,22.5,0,0,1,.449,4.21c.072,6.869-.048,13.741.45,20.6.111,1.529.054,1.547-1.463,1.559-1.82.014-3.642-.032-5.461.018-.868.024-1.178-.309-1.215-1.149C590.663,183.875,590.5,182.739,590.358,181.277Zm-4.26-11.493c-1.142.067-2.292.073-3.426.214a9.227,9.227,0,0,0-5.191,1.991,4.9,4.9,0,0,0-1.6,4.749,3.961,3.961,0,0,0,3.087,3.12,8.146,8.146,0,0,0,10.3-5.066,12.117,12.117,0,0,0,.676-3.144c.145-1.805.112-1.834-1.623-1.86C587.581,169.777,586.84,169.786,586.1,169.784Z" transform="translate(-88.57 -23.503)" fill="#303030"/>
    <path id="Path_79" data-name="Path 79" d="M567.793,93.3c-.627.734-1,1.188-1.388,1.62-4.629,5.089-13.582,5.534-18.712.933-5.01-4.494-4.227-13.133,1.544-16.781a18.834,18.834,0,0,1,8.442-2.509c2.69-.265,5.388-.2,8.085-.215,1.717-.008,1.831-.162,1.59-1.861a5.588,5.588,0,0,0-5-5.265c-4.251-.837-8.141.235-11.853,2.243-.531.287-1.042.613-1.567.913-.047.027-.125,0-.443,0-.052-2.294-.106-4.6-.157-6.916-.018-.818.652-.917,1.2-1.131A30.339,30.339,0,0,1,562.6,62.261a23.342,23.342,0,0,1,3.8.487c5.372,1.247,8.342,4.5,9.157,9.962a58.234,58.234,0,0,1,.3,8.068c.054,5.321.035,10.643.437,15.956.108,1.439.038,1.467-1.379,1.486-1.754.024-3.507-.028-5.26.019-.964.026-1.519-.191-1.523-1.312C568.135,95.856,567.945,94.786,567.793,93.3Zm-3.94-11.469a21.738,21.738,0,0,0-4.809.4,8.487,8.487,0,0,0-4.021,1.726,4.884,4.884,0,0,0-1.643,5.087c.4,1.759,1.772,2.573,3.457,2.978a8.523,8.523,0,0,0,3.592.161c3.935-.731,6.406-3.609,6.929-8.057.269-2.3.269-2.3-2.095-2.3Z" transform="translate(-85.04 -9.769)" fill="#303030"/>
    <path id="Path_80" data-name="Path 80" d="M456.722,155.137c.64.026.751-.35.954-.578,3.589-4.021,8.2-4.965,13.259-4.2,4.349.655,7.1,3.339,8.472,7.448a16.425,16.425,0,0,1,.87,5.16q.018,10.813,0,21.625c0,1.529-.023,1.544-1.537,1.556q-3.034.023-6.069,0c-1.586-.011-1.6-.025-1.6-1.7q-.025-9.5-.039-19a15.158,15.158,0,0,0-.318-3.208c-1.074-4.928-6.268-6.643-10.094-3.31a8.246,8.246,0,0,0-2.181,3.117,15.9,15.9,0,0,0-1.227,6.1q-.028,7.882-.033,15.764c0,.472-.017.943,0,1.414.02.61-.291.824-.865.822q-3.742-.014-7.485,0c-.57,0-.885-.207-.864-.819.016-.471,0-.943,0-1.414q0-15.36,0-30.72c0-.4.029-.811,0-1.212-.066-.785.277-1.069,1.052-1.059q3.338.043,6.676,0c.795-.011,1.073.318,1.046,1.081C456.695,153.049,456.722,154.1,456.722,155.137Z" transform="translate(-69.977 -23.502)" fill="#303030"/>
    <path id="Path_81" data-name="Path 81" d="M315.462,178.024a21.884,21.884,0,0,0,8.427,2.16,8.721,8.721,0,0,0,4.315-.829,3.666,3.666,0,0,0,2.173-3.369,3.5,3.5,0,0,0-2.058-3.22,22.159,22.159,0,0,0-4.158-1.53c-1.341-.44-2.7-.835-4.017-1.342-7.71-2.962-6.759-12.977-2.445-16.424a15.409,15.409,0,0,1,8.552-3.253,36.016,36.016,0,0,1,10.839.92c.952.21,1.4.546,1.173,1.612-.377,1.764-.15,3.612-.616,5.509-1.374-.334-2.655-.653-3.941-.955a18.606,18.606,0,0,0-5.43-.3,5.806,5.806,0,0,0-2.656.877,3.037,3.037,0,0,0,.113,5.306,23.263,23.263,0,0,0,3.963,1.487,40.721,40.721,0,0,1,4.916,1.814c7.287,3.319,6.572,13.19,2.105,16.881a16.387,16.387,0,0,1-9.49,3.547,36.391,36.391,0,0,1-11.224-1.1c-.923-.218-1.218-.585-1.144-1.5A44.589,44.589,0,0,1,315.462,178.024Z" transform="translate(-49.114 -23.506)" fill="#303030"/>
    <path id="Path_82" data-name="Path 82" d="M614.736,70.493c-1.224-.316-2.239-.646-3.278-.834-6.722-1.22-11,1.769-12.122,8.495a15.106,15.106,0,0,0,.745,7.757,8.808,8.808,0,0,0,9.906,5.892,22.933,22.933,0,0,0,5.726-1.568c.143,2.48.314,4.782.392,7.087.033.985-.953.855-1.51.975a30.834,30.834,0,0,1-11.252.462c-4.845-.75-8.862-3.031-11.174-7.455-3.71-7.1-3.794-14.377.087-21.446,2.464-4.487,6.549-6.836,11.6-7.469A30.463,30.463,0,0,1,614.3,63c.825.183,1.286.448,1.127,1.468C615.116,66.437,614.963,68.429,614.736,70.493Z" transform="translate(-92.068 -9.767)" fill="#303030"/>
    <path id="Path_83" data-name="Path 83" d="M556.658,157.606q0,12.026,0,24.053c0,1.714.112,1.656-1.635,1.65-2.091-.006-4.182-.029-6.272.012-.827.016-1.292-.185-1.189-1.112a10.993,10.993,0,0,0,.006-1.212V133.7c0-1.892-.092-1.75,1.744-1.75,1.889,0,3.777-.008,5.665,0,1.656.008,1.67.017,1.677,1.6.012,2.358,0,4.717,0,7.074Q556.658,149.117,556.658,157.606Z" transform="translate(-85.536 -20.664)" fill="#303030"/>
    <path id="Path_84" data-name="Path 84" d="M524.052,69.422A24.385,24.385,0,0,1,527.71,64.7a9.48,9.48,0,0,1,7.832-2.449c.662.073,1.12.227,1.106,1.071-.043,2.617-.016,5.235-.016,7.987a16.917,16.917,0,0,0-4.517-.346,6.421,6.421,0,0,0-5.7,4.167,20.206,20.206,0,0,0-1.33,7.71c-.1,4.51-.073,9.022-.088,13.533-.007,1.894.121,1.853-1.9,1.846s-4.045-.032-6.065.011c-.884.018-1.177-.321-1.164-1.183.036-2.626.012-5.252.012-7.879V65.328c0-.471.011-.943,0-1.414-.009-.549.176-.906.8-.906q3.236,0,6.471,0c.7,0,.911.371.9,1.022C524.037,65.825,524.052,67.623,524.052,69.422Z" transform="translate(-80.587 -9.761)" fill="#303030"/>
    <path id="Path_85" data-name="Path 85" d="M637.734,80.76q0,7.886,0,15.771c0,1.9.122,1.846-1.9,1.84-1.753-.005-3.509-.008-5.262,0-2.135.011-1.927-.013-1.927-2.033q0-4.044,0-8.088V65.2c0-2.178-.144-2.042,2.121-2.041,1.619,0,3.238,0,4.857,0,2.329,0,2.108-.149,2.11,2.03Q637.742,72.976,637.734,80.76Z" transform="translate(-98.204 -9.918)" fill="#303030"/>
    <path id="Path_86" data-name="Path 86" d="M452.749,141.975a8.884,8.884,0,0,1,3.171-6.6c1.95-1.643,4.215-1.656,6.5-1.028a44.6,44.6,0,0,1,4.552,1.634,8.353,8.353,0,0,0,3.516.764,2.628,2.628,0,0,0,2.473-1.754c.664-1.6.673-1.6,2.362-1.578,1.738.022,1.857.142,1.552,1.842a9.851,9.851,0,0,1-1.064,3.242,6.076,6.076,0,0,1-5.433,3.268,16.454,16.454,0,0,1-6.1-1.23,17.441,17.441,0,0,0-3.445-1.117c-2.268-.34-3.19.108-4.2,2.15-.236.478-.44.783-1.013.754-.6-.031-1.212,0-1.819-.008A1.325,1.325,0,0,1,452.749,141.975Z" transform="translate(-70.727 -20.893)" fill="#303030"/>
    <path id="Path_87" data-name="Path 87" d="M628.631,45.162c2.852,0,5.331.029,7.81-.015.891-.016,1.352.144,1.317,1.192-.073,2.142-.052,4.288-.009,6.432.018.89-.349,1.16-1.188,1.148-2.28-.033-4.561-.014-6.84-.009-.578,0-1.091-.04-1.09-.815C628.635,50.492,628.631,47.89,628.631,45.162Z" transform="translate(-98.202 -7.105)" fill="#303030"/>
    <path id="Path_88" data-name="Path 88" d="M678.712,46.013q-4.13,4.4-8.257,8.807a1.815,1.815,0,0,1-1.348.768c-1.586-.007-3.173,0-5.138,0,.828-1.465,1.473-2.609,2.12-3.75.993-1.75,2-3.493,2.978-5.25.3-.545.586-1.006,1.339-1,2.729.03,5.459.012,8.188.012Z" transform="translate(-103.722 -7.174)" fill="#303030"/>
  </g>
</svg>
